<svg width="441" height="330" viewBox="0 0 441 330" fill="none" xmlns="http://www.w3.org/2000/svg">
<g filter="url(#filter0_d_4_14)">
<rect x="48" y="79" width="210" height="170" rx="10" fill="#73428E"/>
<rect x="45.5" y="76.5" width="215" height="175" rx="12.5" stroke="url(#paint0_linear_4_14)" stroke-width="5"/>
</g>
<g filter="url(#filter1_d_4_14)">
<rect x="48" y="79" width="210" height="170" rx="10" fill="url(#paint1_linear_4_14)"/>
<rect x="52" y="83" width="202" height="162" rx="6" stroke="white" stroke-opacity="0.38" stroke-width="8"/>
</g>
<mask id="path-5-outside-1_4_14" maskUnits="userSpaceOnUse" x="72" y="115" width="157" height="99" fill="black">
<rect fill="white" x="72" y="115" width="157" height="99"/>
<path d="M85.911 117.455L112.086 158.495H112.687L138.862 117.455H149.064L118.642 164.727L149.064 212H138.862L112.687 171.421H112.086L85.911 212H75.7086L106.593 164.727L75.7086 117.455H85.911ZM165.43 212V117.455H195.945C202.654 117.455 208.255 118.747 212.749 121.332C217.273 123.887 220.674 127.365 222.951 131.766C225.259 136.167 226.414 141.122 226.414 146.631C226.414 152.14 225.275 157.11 222.997 161.542C220.72 165.943 217.334 169.436 212.841 172.021C208.348 174.576 202.762 175.853 196.083 175.853H172.078V168.097H195.852C200.807 168.097 204.916 167.174 208.178 165.327C211.441 163.45 213.872 160.896 215.472 157.664C217.104 154.433 217.919 150.755 217.919 146.631C217.919 142.507 217.104 138.829 215.472 135.597C213.872 132.366 211.425 129.827 208.132 127.98C204.87 126.134 200.731 125.21 195.714 125.21H174.063V212H165.43Z"/>
</mask>
<path d="M85.911 117.455L112.086 158.495H112.687L138.862 117.455H149.064L118.642 164.727L149.064 212H138.862L112.687 171.421H112.086L85.911 212H75.7086L106.593 164.727L75.7086 117.455H85.911ZM165.43 212V117.455H195.945C202.654 117.455 208.255 118.747 212.749 121.332C217.273 123.887 220.674 127.365 222.951 131.766C225.259 136.167 226.414 141.122 226.414 146.631C226.414 152.14 225.275 157.11 222.997 161.542C220.72 165.943 217.334 169.436 212.841 172.021C208.348 174.576 202.762 175.853 196.083 175.853H172.078V168.097H195.852C200.807 168.097 204.916 167.174 208.178 165.327C211.441 163.45 213.872 160.896 215.472 157.664C217.104 154.433 217.919 150.755 217.919 146.631C217.919 142.507 217.104 138.829 215.472 135.597C213.872 132.366 211.425 129.827 208.132 127.98C204.87 126.134 200.731 125.21 195.714 125.21H174.063V212H165.43Z" fill="white"/>
<path d="M85.911 117.455L87.5973 116.379L87.0076 115.455H85.911V117.455ZM112.086 158.495L110.4 159.57L110.99 160.495H112.086V158.495ZM112.687 158.495V160.495H113.783L114.373 159.57L112.687 158.495ZM138.862 117.455V115.455H137.765L137.176 116.379L138.862 117.455ZM149.064 117.455L150.746 118.537L152.73 115.455H149.064V117.455ZM118.642 164.727L116.96 163.645L116.263 164.727L116.96 165.81L118.642 164.727ZM149.064 212V214H152.73L150.746 210.918L149.064 212ZM138.862 212L137.181 213.084L137.772 214H138.862V212ZM112.687 171.421L114.367 170.337L113.777 169.421H112.687V171.421ZM112.086 171.421V169.421H110.997L110.406 170.337L112.086 171.421ZM85.911 212V214H87.0009L87.5917 213.084L85.911 212ZM75.7086 212L74.0343 210.906L72.013 214H75.7086V212ZM106.593 164.727L108.267 165.821L108.982 164.727L108.267 163.633L106.593 164.727ZM75.7086 117.455V115.455H72.013L74.0343 118.548L75.7086 117.455ZM85.911 117.455L84.2248 118.53L110.4 159.57L112.086 158.495L113.773 157.42L87.5973 116.379L85.911 117.455ZM112.086 158.495V160.495H112.687V158.495V156.495H112.086V158.495ZM112.687 158.495L114.373 159.57L140.548 118.53L138.862 117.455L137.176 116.379L111 157.42L112.687 158.495ZM138.862 117.455V119.455H149.064V117.455V115.455H138.862V117.455ZM149.064 117.455L147.383 116.372L116.96 163.645L118.642 164.727L120.324 165.81L150.746 118.537L149.064 117.455ZM118.642 164.727L116.96 165.81L147.383 213.082L149.064 212L150.746 210.918L120.324 163.645L118.642 164.727ZM149.064 212V210H138.862V212V214H149.064V212ZM138.862 212L140.543 210.916L114.367 170.337L112.687 171.421L111.006 172.505L137.181 213.084L138.862 212ZM112.687 171.421V169.421H112.086V171.421V173.421H112.687V171.421ZM112.086 171.421L110.406 170.337L84.2304 210.916L85.911 212L87.5917 213.084L113.767 172.505L112.086 171.421ZM85.911 212V210H75.7086V212V214H85.911V212ZM75.7086 212L77.383 213.094L108.267 165.821L106.593 164.727L104.919 163.633L74.0343 210.906L75.7086 212ZM106.593 164.727L108.267 163.633L77.383 116.361L75.7086 117.455L74.0343 118.548L104.919 165.821L106.593 164.727ZM75.7086 117.455V119.455H85.911V117.455V115.455H75.7086V117.455ZM165.43 212H163.43V214H165.43V212ZM165.43 117.455V115.455H163.43V117.455H165.43ZM212.749 121.332L211.751 123.066L211.758 123.07L211.765 123.074L212.749 121.332ZM222.951 131.766L221.175 132.685L221.18 132.695L222.951 131.766ZM222.997 161.542L224.774 162.461L224.776 162.456L222.997 161.542ZM212.841 172.021L213.83 173.76L213.838 173.755L212.841 172.021ZM172.078 175.853H170.078V177.853H172.078V175.853ZM172.078 168.097V166.097H170.078V168.097H172.078ZM208.178 165.327L209.164 167.068L209.17 167.064L209.176 167.061L208.178 165.327ZM215.472 157.664L213.687 156.763L213.684 156.77L213.68 156.776L215.472 157.664ZM215.472 135.597L213.68 136.485L213.684 136.492L213.687 136.499L215.472 135.597ZM208.132 127.98L207.147 129.721L207.154 129.725L208.132 127.98ZM174.063 125.21V123.21H172.063V125.21H174.063ZM174.063 212V214H176.063V212H174.063ZM165.43 212H167.43V117.455H165.43H163.43V212H165.43ZM165.43 117.455V119.455H195.945V117.455V115.455H165.43V117.455ZM195.945 117.455V119.455C202.405 119.455 207.638 120.699 211.751 123.066L212.749 121.332L213.746 119.599C208.873 116.795 202.904 115.455 195.945 115.455V117.455ZM212.749 121.332L211.765 123.074C215.968 125.447 219.085 128.646 221.175 132.685L222.951 131.766L224.727 130.846C222.262 126.083 218.578 122.327 213.732 119.591L212.749 121.332ZM222.951 131.766L221.18 132.695C223.322 136.779 224.414 141.41 224.414 146.631H226.414H228.414C228.414 140.834 227.197 135.554 224.722 130.837L222.951 131.766ZM226.414 146.631H224.414C224.414 151.856 223.336 156.508 221.218 160.628L222.997 161.542L224.776 162.456C227.214 157.713 228.414 152.424 228.414 146.631H226.414ZM222.997 161.542L221.221 160.623C219.128 164.667 216.021 167.884 211.844 170.288L212.841 172.021L213.838 173.755C218.648 170.988 222.312 167.219 224.774 162.461L222.997 161.542ZM212.841 172.021L211.853 170.283C207.736 172.623 202.514 173.853 196.083 173.853V175.853V177.853C203.01 177.853 208.959 176.529 213.83 173.76L212.841 172.021ZM196.083 175.853V173.853H172.078V175.853V177.853H196.083V175.853ZM172.078 175.853H174.078V168.097H172.078H170.078V175.853H172.078ZM172.078 168.097V170.097H195.852V168.097V166.097H172.078V168.097ZM195.852 168.097V170.097C201.045 170.097 205.519 169.131 209.164 167.068L208.178 165.327L207.193 163.587C204.313 165.217 200.57 166.097 195.852 166.097V168.097ZM208.178 165.327L209.176 167.061C212.765 164.995 215.481 162.154 217.265 158.552L215.472 157.664L213.68 156.776C212.263 159.638 210.116 161.905 207.181 163.594L208.178 165.327ZM215.472 157.664L217.258 158.565C219.049 155.018 219.919 151.024 219.919 146.631H217.919H215.919C215.919 150.486 215.159 153.847 213.687 156.763L215.472 157.664ZM217.919 146.631H219.919C219.919 142.237 219.049 138.244 217.258 134.696L215.472 135.597L213.687 136.499C215.159 139.414 215.919 142.776 215.919 146.631H217.919ZM215.472 135.597L217.265 134.71C215.477 131.1 212.738 128.27 209.11 126.236L208.132 127.98L207.154 129.725C210.113 131.384 212.267 133.632 213.68 136.485L215.472 135.597ZM208.132 127.98L209.117 126.24C205.47 124.175 200.963 123.21 195.714 123.21V125.21V127.21C200.498 127.21 204.27 128.092 207.147 129.721L208.132 127.98ZM195.714 125.21V123.21H174.063V125.21V127.21H195.714V125.21ZM174.063 125.21H172.063V212H174.063H176.063V125.21H174.063ZM174.063 212V210H165.43V212V214H174.063V212Z" fill="url(#paint2_linear_4_14)" mask="url(#path-5-outside-1_4_14)"/>
<path d="M309.721 215V145.182H323.312V215H309.721ZM316.585 134.409C314.221 134.409 312.191 133.621 310.494 132.045C308.827 130.439 307.994 128.53 307.994 126.318C307.994 124.076 308.827 122.167 310.494 120.591C312.191 118.985 314.221 118.182 316.585 118.182C318.949 118.182 320.964 118.985 322.63 120.591C324.327 122.167 325.176 124.076 325.176 126.318C325.176 128.53 324.327 130.439 322.63 132.045C320.964 133.621 318.949 134.409 316.585 134.409ZM365.227 145.182V156.091H327.091V145.182H365.227ZM337.318 128.455H350.909V194.5C350.909 197.136 351.303 199.121 352.091 200.455C352.879 201.758 353.894 202.652 355.136 203.136C356.409 203.591 357.788 203.818 359.273 203.818C360.364 203.818 361.318 203.742 362.136 203.591C362.955 203.439 363.591 203.318 364.045 203.227L366.5 214.455C365.712 214.758 364.591 215.061 363.136 215.364C361.682 215.697 359.864 215.879 357.682 215.909C354.106 215.97 350.773 215.333 347.682 214C344.591 212.667 342.091 210.606 340.182 207.818C338.273 205.03 337.318 201.53 337.318 197.318V128.455ZM380.256 215.864C377.771 215.864 375.635 214.985 373.847 213.227C372.059 211.439 371.165 209.288 371.165 206.773C371.165 204.288 372.059 202.167 373.847 200.409C375.635 198.621 377.771 197.727 380.256 197.727C382.741 197.727 384.877 198.621 386.665 200.409C388.453 202.167 389.347 204.288 389.347 206.773C389.347 208.439 388.923 209.97 388.074 211.364C387.256 212.727 386.165 213.818 384.801 214.636C383.438 215.455 381.923 215.864 380.256 215.864Z" fill="white"/>
<defs>
<filter id="filter0_d_4_14" x="23" y="59" width="260" height="220" filterUnits="userSpaceOnUse" color-interpolation-filters="sRGB">
<feFlood flood-opacity="0" result="BackgroundImageFix"/>
<feColorMatrix in="SourceAlpha" type="matrix" values="0 0 0 0 0 0 0 0 0 0 0 0 0 0 0 0 0 0 127 0" result="hardAlpha"/>
<feOffset dy="5"/>
<feGaussianBlur stdDeviation="10"/>
<feComposite in2="hardAlpha" operator="out"/>
<feColorMatrix type="matrix" values="0 0 0 0 0 0 0 0 0 0 0 0 0 0 0 0 0 0 0.55 0"/>
<feBlend mode="normal" in2="BackgroundImageFix" result="effect1_dropShadow_4_14"/>
<feBlend mode="normal" in="SourceGraphic" in2="effect1_dropShadow_4_14" result="shape"/>
</filter>
<filter id="filter1_d_4_14" x="43" y="79" width="220" height="180" filterUnits="userSpaceOnUse" color-interpolation-filters="sRGB">
<feFlood flood-opacity="0" result="BackgroundImageFix"/>
<feColorMatrix in="SourceAlpha" type="matrix" values="0 0 0 0 0 0 0 0 0 0 0 0 0 0 0 0 0 0 127 0" result="hardAlpha"/>
<feOffset dy="5"/>
<feGaussianBlur stdDeviation="2.5"/>
<feComposite in2="hardAlpha" operator="out"/>
<feColorMatrix type="matrix" values="0 0 0 0 0 0 0 0 0 0 0 0 0 0 0 0 0 0 0.25 0"/>
<feBlend mode="normal" in2="BackgroundImageFix" result="effect1_dropShadow_4_14"/>
<feBlend mode="normal" in="SourceGraphic" in2="effect1_dropShadow_4_14" result="shape"/>
</filter>
<linearGradient id="paint0_linear_4_14" x1="153" y1="79" x2="153" y2="249" gradientUnits="userSpaceOnUse">
<stop stop-color="#F1D8FF"/>
<stop offset="1" stop-color="#A911F8"/>
</linearGradient>
<linearGradient id="paint1_linear_4_14" x1="153" y1="79" x2="153" y2="249" gradientUnits="userSpaceOnUse">
<stop offset="0.100962" stop-color="#E9C0FF"/>
<stop offset="0.942208" stop-color="#A300F8"/>
</linearGradient>
<linearGradient id="paint2_linear_4_14" x1="153" y1="0" x2="153" y2="330" gradientUnits="userSpaceOnUse">
<stop offset="0.149038" stop-color="#F2D8FF"/>
<stop offset="0.817308" stop-color="#F7E9FF"/>
</linearGradient>
</defs>
</svg>
